<svg width="24" height="24" viewBox="0 0 24 24" fill="none" xmlns="http://www.w3.org/2000/svg">
<rect width="24" height="24" rx="7" fill="#2775CA"/>
<path d="M12 20.9418C16.9553 20.9418 20.9418 16.9553 20.9418 12C20.9418 7.0447 16.9553 3.05817 12 3.05817C7.0447 3.05817 3.05817 7.0447 3.05817 12C3.05817 16.9553 7.0447 20.9418 12 20.9418Z" fill="#2775CA"/>
<path d="M14.4962 13.3226C14.4962 12.0186 13.7138 11.5715 12.149 11.3853C11.0313 11.2362 10.8077 10.9382 10.8077 10.4165C10.8077 9.89486 11.1803 9.55963 11.9255 9.55963C12.5961 9.55963 12.9687 9.78318 13.155 10.342C13.1922 10.4538 13.304 10.5283 13.4158 10.5283H14.0118C14.1609 10.5283 14.2727 10.4165 14.2727 10.2676V10.2303C14.1236 9.41057 13.453 8.77722 12.5961 8.70274V7.80856C12.5961 7.6595 12.4843 7.54772 12.2981 7.51044H11.7392C11.5901 7.51044 11.4784 7.62221 11.4411 7.80856V8.66545C10.3233 8.81451 9.61551 9.55963 9.61551 10.4911C9.61551 11.7206 10.3606 12.2049 11.9255 12.3912C12.9687 12.5775 13.304 12.801 13.304 13.3972C13.304 13.9933 12.7823 14.4031 12.0745 14.4031C11.1058 14.4031 10.7704 13.9933 10.6587 13.4344C10.6215 13.2854 10.5097 13.2108 10.3979 13.2108H9.76448C9.61551 13.2108 9.50374 13.3226 9.50374 13.4717V13.509C9.65271 14.4403 10.2489 15.111 11.4784 15.2973V16.1915C11.4784 16.3405 11.5901 16.4523 11.7764 16.4895H12.3353C12.4843 16.4895 12.5961 16.3778 12.6334 16.1915V15.2973C13.7511 15.111 14.4962 14.3286 14.4962 13.3226Z" fill="white"/>
<path d="M10.0999 17.216C7.19378 16.1729 5.70345 12.9314 6.78398 10.0626C7.34284 8.49773 8.57234 7.30552 10.0999 6.74666C10.2489 6.67217 10.3234 6.5604 10.3234 6.37405V5.85247C10.3234 5.70341 10.2489 5.59164 10.0999 5.55444C10.0626 5.55444 9.9881 5.55444 9.95081 5.59164C6.41137 6.70937 4.47395 10.4724 5.59167 14.0119C6.26231 16.0983 7.86442 17.7004 9.95081 18.371C10.0999 18.4455 10.2489 18.371 10.2861 18.222C10.3234 18.1848 10.3234 18.1475 10.3234 18.073V17.5513C10.3234 17.4395 10.2116 17.2906 10.0999 17.216ZM14.0492 5.59164C13.9001 5.51716 13.7511 5.59164 13.7139 5.7407C13.6766 5.77799 13.6766 5.81519 13.6766 5.88976V6.41134C13.6766 6.5604 13.7884 6.70937 13.9001 6.78394C16.8062 7.8271 18.2966 11.0685 17.216 13.9374C16.6572 15.5022 15.4277 16.6944 13.9001 17.2533C13.7511 17.3278 13.6766 17.4396 13.6766 17.6259V18.1475C13.6766 18.2965 13.7511 18.4083 13.9001 18.4455C13.9374 18.4455 14.0119 18.4455 14.0492 18.4083C17.5886 17.2906 19.5261 13.5275 18.4083 9.98806C17.7377 7.86438 16.0983 6.26228 14.0492 5.59164Z" fill="white"/>
</svg>